<svg width="17" height="17" viewBox="0 0 17 17" fill="none" xmlns="http://www.w3.org/2000/svg">
<g clip-path="url(#clip0_375_268)">
<path fill-rule="evenodd" clip-rule="evenodd" d="M1.16866 8.18996C5.73205 6.20176 8.77503 4.89102 10.2976 4.25774C14.6448 2.44958 15.5481 2.13548 16.1369 2.12511C16.2664 2.12283 16.5559 2.15492 16.7435 2.30711C16.9018 2.43561 16.9454 2.6092 16.9663 2.73103C16.9871 2.85286 17.0131 3.1304 16.9924 3.34727C16.7569 5.82249 15.7375 11.8292 15.2189 14.6015C14.9995 15.7746 14.5674 16.1679 14.1492 16.2064C13.2401 16.29 12.5498 15.6056 11.6694 15.0285C10.2916 14.1254 9.5133 13.5632 8.17597 12.6819C6.63045 11.6634 7.63235 11.1037 8.51313 10.1888C8.74364 9.94942 12.7489 6.30632 12.8264 5.97584C12.8361 5.9345 12.8451 5.78043 12.7536 5.69908C12.6621 5.61772 12.527 5.64554 12.4295 5.66767C12.2913 5.69903 10.0904 7.15378 5.82663 10.0319C5.2019 10.4609 4.63604 10.6699 4.12904 10.659C3.57012 10.6469 2.49498 10.3429 1.69573 10.0831C0.715411 9.76447 -0.063727 9.59599 0.00411841 9.0548C0.0394565 8.77292 0.427637 8.48464 1.16866 8.18996Z" fill="black"/>
</g>
<defs>
<clipPath id="clip0_375_268">
<rect width="17" height="17" fill="white"/>
</clipPath>
</defs>
</svg>
