<svg width="20" height="12" viewBox="0 0 20 12" fill="none" xmlns="http://www.w3.org/2000/svg">
<path d="M1.39304 4.1765L0.134679 1.16849C0.0527631 0.972676 0.0937055 0.746997 0.239186 0.592437C0.340797 0.484485 0.482471 0.423275 0.630723 0.423275H3.18729C3.66554 0.423275 4.0912 0.72429 4.26282 1.17068C5.06249 3.25073 5.74913 4.48129 6.26749 5.16751C6.7243 5.77225 7.47432 5.5638 7.6693 4.83144C7.88495 4.02149 7.85335 3.15356 7.74791 2.48095L7.74481 2.46116C7.6833 2.06821 7.60666 1.57867 7.27499 1.36536C6.94547 1.15342 6.63938 0.56523 6.90791 0.27994L6.97379 0.209946C7.0999 0.075967 7.27573 0 7.45973 0H10.7571C11.3946 0 11.5539 0.564367 11.5539 0.84655V3.04772C11.5539 4.37517 12.442 6.20371 13.1476 5.0793C13.8116 3.95057 15.1396 1.60844 15.1396 1.26982C15.1396 0.660706 15.8834 0.423275 16.4925 0.423275H19.1237C20.3987 0.423275 19.9206 1.55201 19.5222 2.11637L17.1317 5.50257C17.0304 5.63704 16.9402 5.76171 16.8602 5.87723C16.1576 6.89102 17.3856 7.26359 18.1916 8.19721C18.8322 8.93922 19.5059 9.92104 19.9206 10.5819C20.103 10.9694 19.9461 11.2831 19.7039 11.5069C19.3738 11.812 18.8941 11.8517 18.4446 11.8517C16.9136 11.8517 15.0146 11.7962 13.9682 10.6787C13.7001 10.3924 13.4469 10.1003 13.2399 9.8486C13.178 9.77341 13.0712 9.58177 13.0167 9.50105C12.709 9.04493 11.8462 9.18843 11.6754 9.7115C11.5852 9.98785 11.5539 10.3319 11.5539 10.5819C11.5539 11.4478 10.6646 11.8517 9.79866 11.8517H9.6393C9.06524 11.8517 8.44776 11.9319 7.93744 11.669C7.29692 11.339 6.43735 10.682 5.66433 10.0305C4.79203 9.29539 4.06554 8.40767 3.4379 7.45509L1.87963 5.09007C1.68939 4.80134 1.52649 4.49549 1.39304 4.1765Z" fill="black"/>
</svg>
