<svg width="17" height="17" viewBox="0 0 17 17" fill="none" xmlns="http://www.w3.org/2000/svg">
<g clip-path="url(#clip0_375_267)">
<path d="M4.66012 5.75249C4.80809 5.28273 5.21123 4.72052 5.50335 4.57637C5.63276 4.5134 5.72886 4.49866 6.04318 4.49849C6.41302 4.49849 6.43158 4.5023 6.52768 4.5984C6.59048 4.66501 6.76065 5.02739 7.00472 5.6118C7.21184 6.11486 7.38201 6.54385 7.38201 6.56605C7.38201 6.66979 7.17489 6.99886 6.93828 7.27623C6.77557 7.46479 6.67946 7.60895 6.67946 7.66081C6.67946 7.70886 6.79777 7.93073 6.94574 8.14895C7.30447 8.68532 7.96643 9.35091 8.48059 9.69126C8.88355 9.95753 9.60119 10.3052 9.74534 10.3052C9.85272 10.3052 10.0487 10.1128 10.4481 9.61025C10.611 9.40695 10.7551 9.25898 10.8106 9.24787C10.8587 9.23296 10.9771 9.25152 11.0732 9.28847C11.3506 9.39567 12.7524 10.0798 12.8263 10.1464C12.9706 10.2795 12.8523 11.0414 12.6378 11.352C12.3085 11.8329 11.3692 12.2435 10.7515 12.1805C10.3003 12.1325 9.23517 11.7812 8.54356 11.452C7.65592 11.0266 6.72023 10.2498 5.962 9.29939C5.5292 8.75939 5.09275 8.10108 4.90419 7.70904C4.64902 7.17649 4.55656 6.76589 4.58241 6.29249C4.59351 6.08902 4.63046 5.84495 4.66012 5.75249Z" fill="black"/>
<path fill-rule="evenodd" clip-rule="evenodd" d="M0.429113 6.72877C1.12073 3.18203 3.95 0.537682 7.58555 0.0420817C8.08479 -0.0281723 9.48659 -0.00596937 9.97126 0.0753875C10.478 0.16403 11.1474 0.337846 11.558 0.493273C14.2726 1.50286 16.2772 3.8367 16.8467 6.64377C17.0944 7.86793 17.0389 9.30304 16.7024 10.5086C15.8997 13.3638 13.5697 15.6124 10.6738 16.3299C8.78769 16.7958 6.80529 16.5924 5.01891 15.7566L4.58247 15.5495L2.29685 16.278C1.04302 16.6775 0.00758485 16.9957 0.000125706 16.9882C-0.00733343 16.9807 0.318093 15.9859 0.728693 14.7839L1.472 12.5906L1.17242 11.9953C0.340297 10.3199 0.0851252 8.50768 0.429113 6.72877ZM15.4263 6.44029C14.6978 3.77738 12.3825 1.74693 9.65676 1.37709C8.16996 1.17743 6.76817 1.40311 5.47739 2.05397C2.34854 3.63687 0.8581 7.25403 1.98582 10.5234C2.12997 10.9413 2.51837 11.7292 2.75879 12.0915L2.95117 12.38L2.52218 13.6375C2.28557 14.3291 2.09319 14.9099 2.09319 14.9246C2.09319 14.943 2.68854 14.7656 3.41346 14.5362C4.14203 14.3033 4.74865 14.1145 4.75975 14.1145C4.77467 14.1145 4.91882 14.1922 5.07789 14.2847C6.79766 15.309 8.94277 15.5311 10.8771 14.8875C13.1407 14.1367 14.8825 12.269 15.4669 9.96863C15.7517 8.84421 15.737 7.57581 15.4263 6.44029Z" fill="black"/>
</g>
<defs>
<clipPath id="clip0_375_267">
<rect width="17" height="17" fill="white"/>
</clipPath>
</defs>
</svg>
