<svg width="600" viewBox="0 0 1678 1210" fill="none" xmlns="http://www.w3.org/2000/svg">
<path d="M587.232 235.894C585.794 238.252 586.539 241.329 588.896 242.767C591.254 244.205 594.33 243.46 595.769 241.102L587.232 235.894ZM596.562 230.202L592.293 227.598L596.562 230.202ZM899.5 135.499L897.475 140.071L897.653 140.15L897.837 140.214L899.5 135.499ZM1068.33 195.051L1069.99 190.335L1068.33 195.051ZM1292.23 155.35L1289.04 151.494L1292.23 155.35ZM1437.62 35.327L1440.8 39.183L1437.62 35.327ZM1664.85 864.273L1659.99 863.078L1664.85 864.273ZM1604.96 1107.55L1600.1 1106.36L1604.96 1107.55ZM1359.49 1111.94L1354.68 1113.31L1359.49 1111.94ZM1291.17 871.786L1295.98 870.417L1291.17 871.786ZM141.309 929.751L142.874 925.002L141.309 929.751ZM3.24857 880.535C0.782942 881.779 -0.207847 884.786 1.03558 887.251L21.2985 927.431C22.5419 929.897 25.5487 930.887 28.0143 929.644C30.48 928.401 31.4707 925.394 30.2273 922.928L12.2159 887.213L47.9312 869.201C50.3969 867.958 51.3876 864.951 50.1442 862.486C48.9008 860.02 45.894 859.029 43.4284 860.273L3.24857 880.535ZM426.211 578.769L422.165 575.832L426.211 578.769ZM383.878 637.08L379.832 634.143L379.832 634.143L383.878 637.08ZM808.476 743.545L803.995 745.763L808.476 743.545ZM740.011 605.238L744.492 603.02L740.011 605.238ZM1628.99 187.658L1624.51 185.421L1628.99 187.658ZM1579.66 286.239L1575.19 284.002L1579.66 286.239ZM1568.64 463.445L1563.92 465.111L1568.64 463.445ZM1657.5 714.925L1652.79 716.591L1657.5 714.925ZM998.883 782.917L995.649 779.103L998.883 782.917ZM357.293 746.859L362.235 746.099L357.293 746.859ZM595.769 241.102L600.83 232.806L592.293 227.598L587.232 235.894L595.769 241.102ZM897.837 140.214L1066.66 199.766L1069.99 190.335L901.164 130.784L897.837 140.214ZM1295.41 159.206L1440.8 39.183L1434.44 31.4711L1289.04 151.494L1295.41 159.206ZM1659.99 863.078L1600.1 1106.36L1609.81 1108.75L1669.7 865.469L1659.99 863.078ZM1364.3 1110.57L1295.98 870.417L1286.36 873.154L1354.68 1113.31L1364.3 1110.57ZM142.874 925.002L7.06483 880.251L3.93519 889.749L139.744 934.5L142.874 925.002ZM422.165 575.832L379.832 634.143L387.925 640.017L430.258 581.707L422.165 575.832ZM812.957 741.326L744.492 603.02L735.53 607.456L803.995 745.763L812.957 741.326ZM1624.51 185.421L1575.19 284.002L1584.13 288.477L1633.46 189.896L1624.51 185.421ZM1563.92 465.111L1652.79 716.591L1662.22 713.26L1573.35 461.779L1563.92 465.111ZM995.649 779.103C936.947 828.881 847.102 810.303 812.957 741.326L803.995 745.763C841.024 820.565 938.457 840.713 1002.12 786.73L995.649 779.103ZM430.258 581.707C509.332 472.786 675.817 486.829 735.53 607.456L744.492 603.02C681.443 475.654 505.658 460.827 422.165 575.832L430.258 581.707ZM352.351 747.62C370.64 866.408 257.024 962.617 142.874 925.002L139.744 934.5C260.986 974.451 381.66 872.266 362.235 746.099L352.351 747.62ZM1295.98 870.417C1258.84 739.846 1099.19 691.305 995.649 779.103L1002.12 786.73C1100.11 703.635 1251.21 749.576 1286.36 873.154L1295.98 870.417ZM362.235 746.099C356.482 708.734 365.715 670.61 387.925 640.017L379.832 634.143C356.074 666.868 346.197 707.651 352.351 747.62L362.235 746.099ZM1669.7 865.469C1682.1 815.088 1679.5 762.18 1662.22 713.26L1652.79 716.591C1669.42 763.673 1671.93 814.592 1659.99 863.078L1669.7 865.469ZM1066.66 199.766C1144.75 227.309 1231.56 211.917 1295.41 159.206L1289.04 151.494C1227.9 201.971 1144.77 216.711 1069.99 190.335L1066.66 199.766ZM600.83 232.806C662.431 131.835 789.332 92.1634 897.475 140.071L901.526 130.928C788.794 80.9876 656.508 122.342 592.293 227.598L600.83 232.806ZM1600.1 1106.36C1570.19 1227.87 1398.54 1230.94 1364.3 1110.57L1354.68 1113.31C1391.73 1243.55 1577.45 1240.23 1609.81 1108.75L1600.1 1106.36ZM1575.19 284.002C1547 340.338 1542.93 405.715 1563.92 465.111L1573.35 461.779C1553.27 404.944 1557.16 342.385 1584.13 288.477L1575.19 284.002ZM1440.8 39.183C1540.83 -43.3887 1682.55 69.4255 1624.51 185.421L1633.46 189.896C1696.33 64.2339 1542.8 -57.9815 1434.44 31.4711L1440.8 39.183Z" fill="url(#paint0_linear_375_7)"/>
<defs>
<linearGradient id="paint0_linear_375_7" x1="472.5" y1="83.5002" x2="789.5" y2="905" gradientUnits="userSpaceOnUse">
<stop stop-opacity="0"/>
<stop offset="1"/>
</linearGradient>
</defs>
</svg>
